<?xml version="1.0" encoding="UTF-8" standalone="no"?>
<!DOCTYPE svg PUBLIC "-//W3C//DTD SVG 1.1//EN"
 "http://www.w3.org/Graphics/SVG/1.1/DTD/svg11.dtd">
<!-- Generated by graphviz version 12.2.1 (20241206.2353)
 -->
<!-- Title: Tree Pages: 1 -->
<svg width="1468pt" height="447pt"
 viewBox="0.00 0.00 1467.62 447.25" xmlns="http://www.w3.org/2000/svg" xmlns:xlink="http://www.w3.org/1999/xlink">
<g id="graph0" class="graph" transform="scale(1 1) rotate(0) translate(4 443.25)">
<title>Tree</title>
<polygon fill="white" stroke="none" points="-4,4 -4,-443.25 1463.62,-443.25 1463.62,4 -4,4"/>
<!-- 0 -->
<g id="node1" class="node">
<title>0</title>
<polygon fill="#eae9fc" stroke="black" points="896.12,-439.25 682.12,-439.25 682.12,-352.5 896.12,-352.5 896.12,-439.25"/>
<text text-anchor="start" x="764.75" y="-421.95" font-family="Helvetica,sans-Serif" font-size="14.00">node #0</text>
<text text-anchor="start" x="753.88" y="-406.2" font-family="Helvetica,sans-Serif" font-size="14.00">cumin ≤ 0.5</text>
<text text-anchor="start" x="740.75" y="-390.45" font-family="Helvetica,sans-Serif" font-size="14.00">samples = 2448</text>
<text text-anchor="start" x="690.12" y="-374.7" font-family="Helvetica,sans-Serif" font-size="14.00">value = [442, 598, 320, 799, 289]</text>
<text text-anchor="start" x="745.25" y="-358.95" font-family="Helvetica,sans-Serif" font-size="14.00">class = korean</text>
</g>
<!-- 1 -->
<g id="node2" class="node">
<title>1</title>
<polygon fill="#d2d1f9" stroke="black" points="753.12,-316.5 539.12,-316.5 539.12,-229.75 753.12,-229.75 753.12,-316.5"/>
<text text-anchor="start" x="621.75" y="-299.2" font-family="Helvetica,sans-Serif" font-size="14.00">node #1</text>
<text text-anchor="start" x="560.62" y="-283.45" font-family="Helvetica,sans-Serif" font-size="14.00">roasted_sesame_seed ≤ 0.5</text>
<text text-anchor="start" x="597.75" y="-267.7" font-family="Helvetica,sans-Serif" font-size="14.00">samples = 1986</text>
<text text-anchor="start" x="547.12" y="-251.95" font-family="Helvetica,sans-Serif" font-size="14.00">value = [438, 237, 314, 796, 201]</text>
<text text-anchor="start" x="602.25" y="-236.2" font-family="Helvetica,sans-Serif" font-size="14.00">class = korean</text>
</g>
<!-- 0&#45;&gt;1 -->
<g id="edge1" class="edge">
<title>0&#45;&gt;1</title>
<path fill="none" stroke="black" d="M738.71,-352.3C727.92,-343.19 716.43,-333.49 705.35,-324.13"/>
<polygon fill="black" stroke="black" points="707.62,-321.47 697.72,-317.7 703.11,-326.82 707.62,-321.47"/>
<text text-anchor="middle" x="698.67" y="-336.21" font-family="Helvetica,sans-Serif" font-size="14.00">True</text>
</g>
<!-- 8 -->
<g id="node9" class="node">
<title>8</title>
<polygon fill="#9fec6e" stroke="black" points="1054.88,-316.5 893.38,-316.5 893.38,-229.75 1054.88,-229.75 1054.88,-316.5"/>
<text text-anchor="start" x="949.75" y="-299.2" font-family="Helvetica,sans-Serif" font-size="14.00">node #8</text>
<text text-anchor="start" x="946.75" y="-283.45" font-family="Helvetica,sans-Serif" font-size="14.00">fish ≤ 0.5</text>
<text text-anchor="start" x="929.5" y="-267.7" font-family="Helvetica,sans-Serif" font-size="14.00">samples = 462</text>
<text text-anchor="start" x="901.38" y="-251.95" font-family="Helvetica,sans-Serif" font-size="14.00">value = [4, 361, 6, 3, 88]</text>
<text text-anchor="start" x="932.88" y="-236.2" font-family="Helvetica,sans-Serif" font-size="14.00">class = indian</text>
</g>
<!-- 0&#45;&gt;8 -->
<g id="edge8" class="edge">
<title>0&#45;&gt;8</title>
<path fill="none" stroke="black" d="M854.61,-352.13C869.02,-342.73 884.39,-332.7 899.14,-323.07"/>
<polygon fill="black" stroke="black" points="901,-326.03 907.46,-317.64 897.17,-320.17 901,-326.03"/>
<text text-anchor="middle" x="903.59" y="-335.85" font-family="Helvetica,sans-Serif" font-size="14.00">False</text>
</g>
<!-- 2 -->
<g id="node3" class="node">
<title>2</title>
<polygon fill="#ececfc" stroke="black" points="511.25,-193.75 241,-193.75 241,-107 511.25,-107 511.25,-193.75"/>
<text text-anchor="start" x="351.75" y="-176.45" font-family="Helvetica,sans-Serif" font-size="14.00">node #2</text>
<text text-anchor="start" x="340.88" y="-160.7" font-family="Helvetica,sans-Serif" font-size="14.00">starch ≤ 0.5</text>
<text text-anchor="start" x="327.75" y="-144.95" font-family="Helvetica,sans-Serif" font-size="14.00">samples = 1738</text>
<text text-anchor="start" x="249" y="-129.2" font-family="Helvetica,sans-Serif" font-size="14.00">value = [433.0, 237.0, 309.0, 560.0, 199.0]</text>
<text text-anchor="start" x="332.25" y="-113.45" font-family="Helvetica,sans-Serif" font-size="14.00">class = korean</text>
</g>
<!-- 1&#45;&gt;2 -->
<g id="edge2" class="edge">
<title>1&#45;&gt;2</title>
<path fill="none" stroke="black" d="M550.55,-229.38C528.32,-219.44 504.52,-208.8 481.88,-198.67"/>
<polygon fill="black" stroke="black" points="483.51,-195.56 472.95,-194.68 480.65,-201.95 483.51,-195.56"/>
</g>
<!-- 5 -->
<g id="node6" class="node">
<title>5</title>
<polygon fill="#4643e6" stroke="black" points="723.12,-193.75 569.12,-193.75 569.12,-107 723.12,-107 723.12,-193.75"/>
<text text-anchor="start" x="621.75" y="-176.45" font-family="Helvetica,sans-Serif" font-size="14.00">node #5</text>
<text text-anchor="start" x="607.5" y="-160.7" font-family="Helvetica,sans-Serif" font-size="14.00">cilantro ≤ 0.5</text>
<text text-anchor="start" x="601.5" y="-144.95" font-family="Helvetica,sans-Serif" font-size="14.00">samples = 248</text>
<text text-anchor="start" x="577.12" y="-129.2" font-family="Helvetica,sans-Serif" font-size="14.00">value = [5, 0, 5, 236, 2]</text>
<text text-anchor="start" x="602.25" y="-113.45" font-family="Helvetica,sans-Serif" font-size="14.00">class = korean</text>
</g>
<!-- 1&#45;&gt;5 -->
<g id="edge5" class="edge">
<title>1&#45;&gt;5</title>
<path fill="none" stroke="black" d="M646.12,-229.55C646.12,-221.71 646.12,-213.42 646.12,-205.29"/>
<polygon fill="black" stroke="black" points="649.63,-205.48 646.13,-195.48 642.63,-205.48 649.63,-205.48"/>
</g>
<!-- 3 -->
<g id="node4" class="node">
<title>3</title>
<polygon fill="#dbdafa" stroke="black" points="270.25,-71 0,-71 0,0 270.25,0 270.25,-71"/>
<text text-anchor="start" x="110.75" y="-53.7" font-family="Helvetica,sans-Serif" font-size="14.00">node #3</text>
<text text-anchor="start" x="86.75" y="-37.95" font-family="Helvetica,sans-Serif" font-size="14.00">samples = 1507</text>
<text text-anchor="start" x="8" y="-22.2" font-family="Helvetica,sans-Serif" font-size="14.00">value = [273.0, 235.0, 293.0, 519.0, 187.0]</text>
<text text-anchor="start" x="91.25" y="-6.45" font-family="Helvetica,sans-Serif" font-size="14.00">class = korean</text>
</g>
<!-- 2&#45;&gt;3 -->
<g id="edge3" class="edge">
<title>2&#45;&gt;3</title>
<path fill="none" stroke="black" d="M284.67,-106.54C263.39,-96.57 240.81,-86 219.84,-76.18"/>
<polygon fill="black" stroke="black" points="221.59,-73.13 211.05,-72.06 218.62,-79.47 221.59,-73.13"/>
</g>
<!-- 4 -->
<g id="node5" class="node">
<title>4</title>
<polygon fill="#efb083" stroke="black" points="464.38,-71 287.88,-71 287.88,0 464.38,0 464.38,-71"/>
<text text-anchor="start" x="351.75" y="-53.7" font-family="Helvetica,sans-Serif" font-size="14.00">node #4</text>
<text text-anchor="start" x="331.5" y="-37.95" font-family="Helvetica,sans-Serif" font-size="14.00">samples = 231</text>
<text text-anchor="start" x="295.88" y="-22.2" font-family="Helvetica,sans-Serif" font-size="14.00">value = [160, 2, 16, 41, 12]</text>
<text text-anchor="start" x="329.62" y="-6.45" font-family="Helvetica,sans-Serif" font-size="14.00">class = chinese</text>
</g>
<!-- 2&#45;&gt;4 -->
<g id="edge4" class="edge">
<title>2&#45;&gt;4</title>
<path fill="none" stroke="black" d="M376.12,-106.7C376.12,-98.82 376.12,-90.55 376.12,-82.57"/>
<polygon fill="black" stroke="black" points="379.63,-82.67 376.13,-72.67 372.63,-82.67 379.63,-82.67"/>
</g>
<!-- 6 -->
<g id="node7" class="node">
<title>6</title>
<polygon fill="#4441e6" stroke="black" points="636.12,-71 482.12,-71 482.12,0 636.12,0 636.12,-71"/>
<text text-anchor="start" x="534.75" y="-53.7" font-family="Helvetica,sans-Serif" font-size="14.00">node #6</text>
<text text-anchor="start" x="514.5" y="-37.95" font-family="Helvetica,sans-Serif" font-size="14.00">samples = 246</text>
<text text-anchor="start" x="490.12" y="-22.2" font-family="Helvetica,sans-Serif" font-size="14.00">value = [4, 0, 5, 236, 1]</text>
<text text-anchor="start" x="515.25" y="-6.45" font-family="Helvetica,sans-Serif" font-size="14.00">class = korean</text>
</g>
<!-- 5&#45;&gt;6 -->
<g id="edge6" class="edge">
<title>5&#45;&gt;6</title>
<path fill="none" stroke="black" d="M613.23,-106.7C606.52,-97.99 599.45,-88.81 592.71,-80.07"/>
<polygon fill="black" stroke="black" points="595.64,-78.14 586.76,-72.36 590.09,-82.41 595.64,-78.14"/>
</g>
<!-- 7 -->
<g id="node8" class="node">
<title>7</title>
<polygon fill="#ffffff" stroke="black" points="793.62,-71 654.62,-71 654.62,0 793.62,0 793.62,-71"/>
<text text-anchor="start" x="699.75" y="-53.7" font-family="Helvetica,sans-Serif" font-size="14.00">node #7</text>
<text text-anchor="start" x="687" y="-37.95" font-family="Helvetica,sans-Serif" font-size="14.00">samples = 2</text>
<text text-anchor="start" x="662.62" y="-22.2" font-family="Helvetica,sans-Serif" font-size="14.00">value = [1, 0, 0, 0, 1]</text>
<text text-anchor="start" x="677.62" y="-6.45" font-family="Helvetica,sans-Serif" font-size="14.00">class = chinese</text>
</g>
<!-- 5&#45;&gt;7 -->
<g id="edge7" class="edge">
<title>5&#45;&gt;7</title>
<path fill="none" stroke="black" d="M675.61,-106.7C681.51,-98.17 687.71,-89.2 693.63,-80.62"/>
<polygon fill="black" stroke="black" points="696.51,-82.62 699.32,-72.4 690.75,-78.64 696.51,-82.62"/>
</g>
<!-- 9 -->
<g id="node10" class="node">
<title>9</title>
<polygon fill="#8ee956" stroke="black" points="1054.88,-193.75 893.38,-193.75 893.38,-107 1054.88,-107 1054.88,-193.75"/>
<text text-anchor="start" x="949.75" y="-176.45" font-family="Helvetica,sans-Serif" font-size="14.00">node #9</text>
<text text-anchor="start" x="925" y="-160.7" font-family="Helvetica,sans-Serif" font-size="14.00">soy_sauce ≤ 0.5</text>
<text text-anchor="start" x="929.5" y="-144.95" font-family="Helvetica,sans-Serif" font-size="14.00">samples = 405</text>
<text text-anchor="start" x="901.38" y="-129.2" font-family="Helvetica,sans-Serif" font-size="14.00">value = [4, 353, 3, 1, 44]</text>
<text text-anchor="start" x="932.88" y="-113.45" font-family="Helvetica,sans-Serif" font-size="14.00">class = indian</text>
</g>
<!-- 8&#45;&gt;9 -->
<g id="edge9" class="edge">
<title>8&#45;&gt;9</title>
<path fill="none" stroke="black" d="M974.12,-229.55C974.12,-221.71 974.12,-213.42 974.12,-205.29"/>
<polygon fill="black" stroke="black" points="977.63,-205.48 974.13,-195.48 970.63,-205.48 977.63,-205.48"/>
</g>
<!-- 12 -->
<g id="node13" class="node">
<title>12</title>
<polygon fill="#ec6ed1" stroke="black" points="1302.38,-193.75 1155.88,-193.75 1155.88,-107 1302.38,-107 1302.38,-193.75"/>
<text text-anchor="start" x="1201" y="-176.45" font-family="Helvetica,sans-Serif" font-size="14.00">node #12</text>
<text text-anchor="start" x="1193.5" y="-160.7" font-family="Helvetica,sans-Serif" font-size="14.00">yogurt ≤ 0.5</text>
<text text-anchor="start" x="1188.25" y="-144.95" font-family="Helvetica,sans-Serif" font-size="14.00">samples = 57</text>
<text text-anchor="start" x="1163.88" y="-129.2" font-family="Helvetica,sans-Serif" font-size="14.00">value = [0, 8, 3, 2, 44]</text>
<text text-anchor="start" x="1195" y="-113.45" font-family="Helvetica,sans-Serif" font-size="14.00">class = thai</text>
</g>
<!-- 8&#45;&gt;12 -->
<g id="edge12" class="edge">
<title>8&#45;&gt;12</title>
<path fill="none" stroke="black" d="M1055.16,-233.75C1083.99,-220.1 1116.49,-204.71 1145.53,-190.96"/>
<polygon fill="black" stroke="black" points="1146.74,-194.26 1154.28,-186.82 1143.74,-187.93 1146.74,-194.26"/>
</g>
<!-- 10 -->
<g id="node11" class="node">
<title>10</title>
<polygon fill="#86e749" stroke="black" points="972.88,-71 811.38,-71 811.38,0 972.88,0 972.88,-71"/>
<text text-anchor="start" x="864" y="-53.7" font-family="Helvetica,sans-Serif" font-size="14.00">node #10</text>
<text text-anchor="start" x="847.5" y="-37.95" font-family="Helvetica,sans-Serif" font-size="14.00">samples = 375</text>
<text text-anchor="start" x="819.38" y="-22.2" font-family="Helvetica,sans-Serif" font-size="14.00">value = [1, 346, 2, 1, 25]</text>
<text text-anchor="start" x="850.88" y="-6.45" font-family="Helvetica,sans-Serif" font-size="14.00">class = indian</text>
</g>
<!-- 9&#45;&gt;10 -->
<g id="edge10" class="edge">
<title>9&#45;&gt;10</title>
<path fill="none" stroke="black" d="M943.12,-106.7C936.86,-98.08 930.27,-89.01 923.98,-80.35"/>
<polygon fill="black" stroke="black" points="926.9,-78.42 918.19,-72.38 921.24,-82.53 926.9,-78.42"/>
</g>
<!-- 11 -->
<g id="node12" class="node">
<title>11</title>
<polygon fill="#f198de" stroke="black" points="1137.38,-71 990.88,-71 990.88,0 1137.38,0 1137.38,-71"/>
<text text-anchor="start" x="1036.38" y="-53.7" font-family="Helvetica,sans-Serif" font-size="14.00">node #11</text>
<text text-anchor="start" x="1023.25" y="-37.95" font-family="Helvetica,sans-Serif" font-size="14.00">samples = 30</text>
<text text-anchor="start" x="998.88" y="-22.2" font-family="Helvetica,sans-Serif" font-size="14.00">value = [3, 7, 1, 0, 19]</text>
<text text-anchor="start" x="1030" y="-6.45" font-family="Helvetica,sans-Serif" font-size="14.00">class = thai</text>
</g>
<!-- 9&#45;&gt;11 -->
<g id="edge11" class="edge">
<title>9&#45;&gt;11</title>
<path fill="none" stroke="black" d="M1008.15,-106.7C1015.1,-97.99 1022.41,-88.81 1029.38,-80.07"/>
<polygon fill="black" stroke="black" points="1032.05,-82.34 1035.55,-72.34 1026.58,-77.98 1032.05,-82.34"/>
</g>
<!-- 13 -->
<g id="node14" class="node">
<title>13</title>
<polygon fill="#e959ca" stroke="black" points="1302.38,-71 1155.88,-71 1155.88,0 1302.38,0 1302.38,-71"/>
<text text-anchor="start" x="1201" y="-53.7" font-family="Helvetica,sans-Serif" font-size="14.00">node #13</text>
<text text-anchor="start" x="1188.25" y="-37.95" font-family="Helvetica,sans-Serif" font-size="14.00">samples = 52</text>
<text text-anchor="start" x="1163.88" y="-22.2" font-family="Helvetica,sans-Serif" font-size="14.00">value = [0, 3, 3, 2, 44]</text>
<text text-anchor="start" x="1195" y="-6.45" font-family="Helvetica,sans-Serif" font-size="14.00">class = thai</text>
</g>
<!-- 12&#45;&gt;13 -->
<g id="edge13" class="edge">
<title>12&#45;&gt;13</title>
<path fill="none" stroke="black" d="M1229.12,-106.7C1229.12,-98.82 1229.12,-90.55 1229.12,-82.57"/>
<polygon fill="black" stroke="black" points="1232.63,-82.67 1229.13,-72.67 1225.63,-82.67 1232.63,-82.67"/>
</g>
<!-- 14 -->
<g id="node15" class="node">
<title>14</title>
<polygon fill="#7be539" stroke="black" points="1459.62,-71 1320.62,-71 1320.62,0 1459.62,0 1459.62,-71"/>
<text text-anchor="start" x="1362" y="-53.7" font-family="Helvetica,sans-Serif" font-size="14.00">node #14</text>
<text text-anchor="start" x="1353" y="-37.95" font-family="Helvetica,sans-Serif" font-size="14.00">samples = 5</text>
<text text-anchor="start" x="1328.62" y="-22.2" font-family="Helvetica,sans-Serif" font-size="14.00">value = [0, 5, 0, 0, 0]</text>
<text text-anchor="start" x="1348.88" y="-6.45" font-family="Helvetica,sans-Serif" font-size="14.00">class = indian</text>
</g>
<!-- 12&#45;&gt;14 -->
<g id="edge14" class="edge">
<title>12&#45;&gt;14</title>
<path fill="none" stroke="black" d="M1289.99,-106.7C1303.52,-97.22 1317.84,-87.18 1331.29,-77.75"/>
<polygon fill="black" stroke="black" points="1333.02,-80.81 1339.2,-72.21 1329,-75.08 1333.02,-80.81"/>
</g>
</g>
</svg>
